<svg width="48" height="48" viewBox="0 0 48 48" fill="none" xmlns="http://www.w3.org/2000/svg">
<circle cx="24" cy="24" r="24" fill="#5D5FEF" fill-opacity="0.1"/>
<g clip-path="url(#clip0_1700_5560)">
<path d="M35.8117 27.2037L36.0182 27.102L36.2255 27.2043C36.3959 27.2884 36.5 27.4481 36.5 27.6283C36.5 27.8233 36.3803 27.9951 36.2078 28.0677L36.0171 28.1479L35.8312 28.0686C35.658 27.9947 35.5384 27.8222 35.5384 27.6267C35.5384 27.4479 35.6435 27.2865 35.8117 27.2037ZM35.694 30.0013C35.7824 29.5876 35.8964 29.1795 36.0183 28.8907C36.14 29.1796 36.2541 29.5878 36.3425 30.0014C36.4463 30.4874 36.4984 30.9019 36.4984 31.0499C36.4984 31.3144 36.283 31.5294 36.0188 31.5294C35.7535 31.5294 35.5384 31.3141 35.5384 31.0499C35.5384 30.9018 35.5903 30.4871 35.694 30.0013ZM12.0902 20.5813L23.7028 16.4841L23.7032 16.4839C23.7551 16.4655 23.8106 16.4658 23.8607 16.4837L23.8619 16.4841L35.4728 20.5794L35.4093 20.6041L23.8711 25.0976C23.8709 25.0977 23.8706 25.0978 23.8703 25.0979C23.8135 25.1195 23.7511 25.1195 23.6943 25.0979C23.694 25.0978 23.6938 25.0977 23.6935 25.0976L12.0902 20.5813Z" stroke="#5D5FEF"/>
<path d="M32.0637 23.9004C32.0627 25.0801 32.0627 26.2364 32.0627 26.4497C32.0627 27.4713 31.2874 28.511 29.7669 29.3417C28.2697 30.1596 26.1611 30.7038 23.7826 30.7697C21.4038 30.7038 19.295 30.159 17.7976 29.3408C16.2768 28.5097 15.5016 27.47 15.5016 26.4497C15.5016 26.2349 15.5011 25.0792 15.5004 23.9004L23.3311 26.95L23.3314 26.9502C23.6206 27.0625 23.9405 27.0625 24.2297 26.9502L24.23 26.95L32.0637 23.9004Z" stroke="#5D5FEF"/>
</g>
<defs>
<clipPath id="clip0_1700_5560">
<rect width="26" height="26" fill="white" transform="translate(11 11)"/>
</clipPath>
</defs>
</svg>
