<svg width="48" height="48" viewBox="0 0 48 48" fill="none" xmlns="http://www.w3.org/2000/svg">
<circle cx="24" cy="24" r="24" fill="#EB5757" fill-opacity="0.1"/>
<g clip-path="url(#clip0_1700_5527)">
<path d="M30.0938 22.7812C30.6115 22.7812 31.0312 22.3615 31.0312 21.8438C31.0312 21.326 30.6115 20.9062 30.0938 20.9062C29.576 20.9062 29.1562 21.326 29.1562 21.8438C29.1562 22.3615 29.576 22.7812 30.0938 22.7812Z" fill="#EB5757"/>
<path d="M32.25 13.875H31.0312V12.9375C31.0312 12.4197 30.6115 12 30.0938 12C29.576 12 29.1562 12.4197 29.1562 12.9375V13.875H24.8906V12.9375C24.8906 12.4197 24.4709 12 23.9531 12C23.4353 12 23.0156 12.4197 23.0156 12.9375V13.875H18.7969V12.9375C18.7969 12.4197 18.3772 12 17.8594 12C17.3416 12 16.9219 12.4197 16.9219 12.9375V13.875H15.75C13.6823 13.875 12 15.5573 12 17.625V32.25C12 34.3177 13.6823 36 15.75 36H22.9219C23.4397 36 23.8594 35.5803 23.8594 35.0625C23.8594 34.5447 23.4397 34.125 22.9219 34.125H15.75C14.7161 34.125 13.875 33.2839 13.875 32.25V17.625C13.875 16.5911 14.7161 15.75 15.75 15.75H16.9219V16.6875C16.9219 17.2053 17.3416 17.625 17.8594 17.625C18.3772 17.625 18.7969 17.2053 18.7969 16.6875V15.75H23.0156V16.6875C23.0156 17.2053 23.4353 17.625 23.9531 17.625C24.4709 17.625 24.8906 17.2053 24.8906 16.6875V15.75H29.1562V16.6875C29.1562 17.2053 29.576 17.625 30.0938 17.625C30.6115 17.625 31.0312 17.2053 31.0312 16.6875V15.75H32.25C33.2839 15.75 34.125 16.5911 34.125 17.625V22.9688C34.125 23.4865 34.5447 23.9062 35.0625 23.9062C35.5803 23.9062 36 23.4865 36 22.9688V17.625C36 15.5573 34.3177 13.875 32.25 13.875Z" fill="#EB5757"/>
<path d="M30.3281 24.6562C27.2006 24.6562 24.6562 27.2006 24.6562 30.3281C24.6562 33.4556 27.2006 36 30.3281 36C33.4556 36 36 33.4556 36 30.3281C36 27.2006 33.4556 24.6562 30.3281 24.6562ZM30.3281 34.125C28.2345 34.125 26.5312 32.4218 26.5312 30.3281C26.5312 28.2345 28.2345 26.5312 30.3281 26.5312C32.4217 26.5312 34.125 28.2345 34.125 30.3281C34.125 32.4218 32.4217 34.125 30.3281 34.125Z" fill="#EB5757"/>
<path d="M31.6875 29.3906H31.2656V28.4062C31.2656 27.8885 30.8459 27.4688 30.3281 27.4688C29.8103 27.4688 29.3906 27.8885 29.3906 28.4062V30.3281C29.3906 30.8459 29.8103 31.2656 30.3281 31.2656H31.6875C32.2053 31.2656 32.625 30.8459 32.625 30.3281C32.625 29.8103 32.2053 29.3906 31.6875 29.3906Z" fill="#EB5757"/>
<path d="M26.0156 22.7812C26.5334 22.7812 26.9531 22.3615 26.9531 21.8438C26.9531 21.326 26.5334 20.9062 26.0156 20.9062C25.4979 20.9062 25.0781 21.326 25.0781 21.8438C25.0781 22.3615 25.4979 22.7812 26.0156 22.7812Z" fill="#EB5757"/>
<path d="M21.9375 26.8594C22.4553 26.8594 22.875 26.4396 22.875 25.9219C22.875 25.4041 22.4553 24.9844 21.9375 24.9844C21.4197 24.9844 21 25.4041 21 25.9219C21 26.4396 21.4197 26.8594 21.9375 26.8594Z" fill="#EB5757"/>
<path d="M17.8594 22.7812C18.3771 22.7812 18.7969 22.3615 18.7969 21.8438C18.7969 21.326 18.3771 20.9062 17.8594 20.9062C17.3416 20.9062 16.9219 21.326 16.9219 21.8438C16.9219 22.3615 17.3416 22.7812 17.8594 22.7812Z" fill="#EB5757"/>
<path d="M17.8594 26.8594C18.3771 26.8594 18.7969 26.4396 18.7969 25.9219C18.7969 25.4041 18.3771 24.9844 17.8594 24.9844C17.3416 24.9844 16.9219 25.4041 16.9219 25.9219C16.9219 26.4396 17.3416 26.8594 17.8594 26.8594Z" fill="#EB5757"/>
<path d="M17.8594 30.9375C18.3771 30.9375 18.7969 30.5178 18.7969 30C18.7969 29.4822 18.3771 29.0625 17.8594 29.0625C17.3416 29.0625 16.9219 29.4822 16.9219 30C16.9219 30.5178 17.3416 30.9375 17.8594 30.9375Z" fill="#EB5757"/>
<path d="M21.9375 30.9375C22.4553 30.9375 22.875 30.5178 22.875 30C22.875 29.4822 22.4553 29.0625 21.9375 29.0625C21.4197 29.0625 21 29.4822 21 30C21 30.5178 21.4197 30.9375 21.9375 30.9375Z" fill="#EB5757"/>
<path d="M21.9375 22.7812C22.4553 22.7812 22.875 22.3615 22.875 21.8438C22.875 21.326 22.4553 20.9062 21.9375 20.9062C21.4197 20.9062 21 21.326 21 21.8438C21 22.3615 21.4197 22.7812 21.9375 22.7812Z" fill="#EB5757"/>
</g>
<defs>
<clipPath id="clip0_1700_5527">
<rect width="24" height="24" fill="white" transform="translate(12 12)"/>
</clipPath>
</defs>
</svg>
