<svg width="48" height="48" viewBox="0 0 48 48" fill="none" xmlns="http://www.w3.org/2000/svg">
<circle cx="24" cy="24" r="24" fill="#219653" fill-opacity="0.1"/>
<g clip-path="url(#clip0_1700_5507)">
<path d="M33.375 15H31.5V14.25C31.5 13.8522 31.342 13.4706 31.0607 13.1893C30.7794 12.908 30.3978 12.75 30 12.75C29.6022 12.75 29.2206 12.908 28.9393 13.1893C28.658 13.4706 28.5 13.8522 28.5 14.25V15H25.5V14.25C25.5 13.8522 25.342 13.4706 25.0607 13.1893C24.7794 12.908 24.3978 12.75 24 12.75C23.6022 12.75 23.2206 12.908 22.9393 13.1893C22.658 13.4706 22.5 13.8522 22.5 14.25V15H19.5V14.25C19.5 13.8522 19.342 13.4706 19.0607 13.1893C18.7794 12.908 18.3978 12.75 18 12.75C17.6022 12.75 17.2206 12.908 16.9393 13.1893C16.658 13.4706 16.5 13.8522 16.5 14.25V15H14.625C14.1277 15 13.6508 15.1975 13.2992 15.5492C12.9475 15.9008 12.75 16.3777 12.75 16.875V31.875C12.75 32.3723 12.9475 32.8492 13.2992 33.2008C13.6508 33.5525 14.1277 33.75 14.625 33.75H25.125C25.2245 33.75 25.3198 33.7105 25.3902 33.6402C25.4605 33.5698 25.5 33.4745 25.5 33.375C25.5 33.2755 25.4605 33.1802 25.3902 33.1098C25.3198 33.0395 25.2245 33 25.125 33H14.625C14.3269 32.9991 14.0413 32.8803 13.8305 32.6695C13.6197 32.4587 13.5009 32.1731 13.5 31.875V20.25H34.5V26.625C34.5 26.7245 34.5395 26.8198 34.6098 26.8902C34.6802 26.9605 34.7755 27 34.875 27C34.9745 27 35.0698 26.9605 35.1402 26.8902C35.2105 26.8198 35.25 26.7245 35.25 26.625V16.875C35.25 16.3777 35.0525 15.9008 34.7008 15.5492C34.3492 15.1975 33.8723 15 33.375 15ZM29.25 14.25C29.25 14.0511 29.329 13.8603 29.4697 13.7197C29.6103 13.579 29.8011 13.5 30 13.5C30.1989 13.5 30.3897 13.579 30.5303 13.7197C30.671 13.8603 30.75 14.0511 30.75 14.25V16.5C30.75 16.6989 30.671 16.8897 30.5303 17.0303C30.3897 17.171 30.1989 17.25 30 17.25C29.8011 17.25 29.6103 17.171 29.4697 17.0303C29.329 16.8897 29.25 16.6989 29.25 16.5V14.25ZM23.25 14.25C23.25 14.0511 23.329 13.8603 23.4697 13.7197C23.6103 13.579 23.8011 13.5 24 13.5C24.1989 13.5 24.3897 13.579 24.5303 13.7197C24.671 13.8603 24.75 14.0511 24.75 14.25V16.5C24.75 16.6989 24.671 16.8897 24.5303 17.0303C24.3897 17.171 24.1989 17.25 24 17.25C23.8011 17.25 23.6103 17.171 23.4697 17.0303C23.329 16.8897 23.25 16.6989 23.25 16.5V14.25ZM17.25 14.25C17.25 14.0511 17.329 13.8603 17.4697 13.7197C17.6103 13.579 17.8011 13.5 18 13.5C18.1989 13.5 18.3897 13.579 18.5303 13.7197C18.671 13.8603 18.75 14.0511 18.75 14.25V16.5C18.75 16.6989 18.671 16.8897 18.5303 17.0303C18.3897 17.171 18.1989 17.25 18 17.25C17.8011 17.25 17.6103 17.171 17.4697 17.0303C17.329 16.8897 17.25 16.6989 17.25 16.5V14.25ZM34.5 19.5H13.5V16.875C13.5009 16.5769 13.6197 16.2913 13.8305 16.0805C14.0413 15.8697 14.3269 15.7509 14.625 15.75H16.5V16.5C16.5 16.8978 16.658 17.2794 16.9393 17.5607C17.2206 17.842 17.6022 18 18 18C18.3978 18 18.7794 17.842 19.0607 17.5607C19.342 17.2794 19.5 16.8978 19.5 16.5V15.75H22.5V16.5C22.5 16.8978 22.658 17.2794 22.9393 17.5607C23.2206 17.842 23.6022 18 24 18C24.3978 18 24.7794 17.842 25.0607 17.5607C25.342 17.2794 25.5 16.8978 25.5 16.5V15.75H28.5V16.5C28.5 16.8978 28.658 17.2794 28.9393 17.5607C29.2206 17.842 29.6022 18 30 18C30.3978 18 30.7794 17.842 31.0607 17.5607C31.342 17.2794 31.5 16.8978 31.5 16.5V15.75H33.375C33.6731 15.7509 33.9587 15.8697 34.1695 16.0805C34.3803 16.2913 34.4991 16.5769 34.5 16.875V19.5Z" fill="#219653"/>
<path d="M23.25 22.875C23.25 22.6761 23.171 22.4853 23.0303 22.3447C22.8897 22.204 22.6989 22.125 22.5 22.125H21C20.8011 22.125 20.6103 22.204 20.4697 22.3447C20.329 22.4853 20.25 22.6761 20.25 22.875V24C20.25 24.1989 20.329 24.3897 20.4697 24.5303C20.6103 24.671 20.8011 24.75 21 24.75H22.5C22.6989 24.75 22.8897 24.671 23.0303 24.5303C23.171 24.3897 23.25 24.1989 23.25 24V22.875ZM21 24V22.875H22.5V24H21Z" fill="#219653"/>
<path d="M18.75 22.875C18.75 22.6761 18.671 22.4853 18.5303 22.3447C18.3897 22.204 18.1989 22.125 18 22.125H16.5C16.3011 22.125 16.1103 22.204 15.9697 22.3447C15.829 22.4853 15.75 22.6761 15.75 22.875V24C15.75 24.1989 15.829 24.3897 15.9697 24.5303C16.1103 24.671 16.3011 24.75 16.5 24.75H18C18.1989 24.75 18.3897 24.671 18.5303 24.5303C18.671 24.3897 18.75 24.1989 18.75 24V22.875ZM16.5 24V22.875H18V24H16.5Z" fill="#219653"/>
<path d="M31.5 24.75C31.6989 24.75 31.8897 24.671 32.0303 24.5303C32.171 24.3897 32.25 24.1989 32.25 24V22.875C32.25 22.6761 32.171 22.4853 32.0303 22.3447C31.8897 22.204 31.6989 22.125 31.5 22.125H30C29.8011 22.125 29.6103 22.204 29.4697 22.3447C29.329 22.4853 29.25 22.6761 29.25 22.875V24C29.25 24.1989 29.329 24.3897 29.4697 24.5303C29.6103 24.671 29.8011 24.75 30 24.75H31.5ZM30 22.875H31.5V24H30V22.875Z" fill="#219653"/>
<path d="M23.25 26.25C23.25 26.0511 23.171 25.8603 23.0303 25.7197C22.8897 25.579 22.6989 25.5 22.5 25.5H21C20.8011 25.5 20.6103 25.579 20.4697 25.7197C20.329 25.8603 20.25 26.0511 20.25 26.25V27.375C20.25 27.5739 20.329 27.7647 20.4697 27.9053C20.6103 28.046 20.8011 28.125 21 28.125H22.5C22.6989 28.125 22.8897 28.046 23.0303 27.9053C23.171 27.7647 23.25 27.5739 23.25 27.375V26.25ZM21 27.375V26.25H22.5V27.375H21Z" fill="#219653"/>
<path d="M18.75 26.25C18.75 26.0511 18.671 25.8603 18.5303 25.7197C18.3897 25.579 18.1989 25.5 18 25.5H16.5C16.3011 25.5 16.1103 25.579 15.9697 25.7197C15.829 25.8603 15.75 26.0511 15.75 26.25V27.375C15.75 27.5739 15.829 27.7647 15.9697 27.9053C16.1103 28.046 16.3011 28.125 16.5 28.125H18C18.1989 28.125 18.3897 28.046 18.5303 27.9053C18.671 27.7647 18.75 27.5739 18.75 27.375V26.25ZM16.5 27.375V26.25H18V27.375H16.5Z" fill="#219653"/>
<path d="M22.5 28.875H21C20.8011 28.875 20.6103 28.954 20.4697 29.0947C20.329 29.2353 20.25 29.4261 20.25 29.625V30.75C20.25 30.9489 20.329 31.1397 20.4697 31.2803C20.6103 31.421 20.8011 31.5 21 31.5H22.5C22.6989 31.5 22.8897 31.421 23.0303 31.2803C23.171 31.1397 23.25 30.9489 23.25 30.75V29.625C23.25 29.4261 23.171 29.2353 23.0303 29.0947C22.8897 28.954 22.6989 28.875 22.5 28.875ZM21 30.75V29.625H22.5V30.75H21Z" fill="#219653"/>
<path d="M25.5 24.75H27C27.1989 24.75 27.3897 24.671 27.5303 24.5303C27.671 24.3897 27.75 24.1989 27.75 24V22.875C27.75 22.6761 27.671 22.4853 27.5303 22.3447C27.3897 22.204 27.1989 22.125 27 22.125H25.5C25.3011 22.125 25.1103 22.204 24.9697 22.3447C24.829 22.4853 24.75 22.6761 24.75 22.875V24C24.75 24.1989 24.829 24.3897 24.9697 24.5303C25.1103 24.671 25.3011 24.75 25.5 24.75ZM25.5 22.875H27V24H25.5V22.875Z" fill="#219653"/>
<path d="M24.75 27.375C24.75 27.5739 24.829 27.7647 24.9697 27.9053C25.1103 28.046 25.3011 28.125 25.5 28.125C25.5995 28.125 25.6948 28.0855 25.7652 28.0152C25.8355 27.9448 25.875 27.8495 25.875 27.75C25.875 27.6505 25.8355 27.5552 25.7652 27.4848C25.6948 27.4145 25.5995 27.375 25.5 27.375V26.25H27C27.0995 26.25 27.1948 26.2105 27.2652 26.1402C27.3355 26.0698 27.375 25.9745 27.375 25.875C27.375 25.7755 27.3355 25.6802 27.2652 25.6098C27.1948 25.5395 27.0995 25.5 27 25.5H25.5C25.3011 25.5 25.1103 25.579 24.9697 25.7197C24.829 25.8603 24.75 26.0511 24.75 26.25V27.375Z" fill="#219653"/>
<path d="M18 28.875H16.5C16.3011 28.875 16.1103 28.954 15.9697 29.0947C15.829 29.2353 15.75 29.4261 15.75 29.625V30.75C15.75 30.9489 15.829 31.1397 15.9697 31.2803C16.1103 31.421 16.3011 31.5 16.5 31.5H18C18.1989 31.5 18.3897 31.421 18.5303 31.2803C18.671 31.1397 18.75 30.9489 18.75 30.75V29.625C18.75 29.4261 18.671 29.2353 18.5303 29.0947C18.3897 28.954 18.1989 28.875 18 28.875ZM16.5 30.75V29.625H18V30.75H16.5Z" fill="#219653"/>
<path d="M30.375 25.5C29.4108 25.5 28.4683 25.7859 27.6666 26.3216C26.8649 26.8573 26.2401 27.6186 25.8711 28.5094C25.5021 29.4002 25.4056 30.3804 25.5937 31.3261C25.7818 32.2717 26.2461 33.1404 26.9279 33.8221C27.6096 34.5039 28.4783 34.9682 29.4239 35.1563C30.3696 35.3444 31.3498 35.2479 32.2406 34.8789C33.1314 34.5099 33.8927 33.8851 34.4284 33.0834C34.9641 32.2817 35.25 31.3392 35.25 30.375C35.2485 29.0825 34.7344 27.8434 33.8205 26.9295C32.9066 26.0156 31.6675 25.5015 30.375 25.5ZM30.375 34.5C29.5592 34.5 28.7616 34.2581 28.0833 33.8048C27.4049 33.3516 26.8762 32.7073 26.564 31.9536C26.2518 31.1998 26.1701 30.3704 26.3293 29.5703C26.4884 28.7701 26.8813 28.0351 27.4582 27.4582C28.0351 26.8813 28.7701 26.4884 29.5703 26.3293C30.3704 26.1701 31.1998 26.2518 31.9536 26.564C32.7073 26.8762 33.3516 27.4049 33.8048 28.0833C34.2581 28.7616 34.5 29.5592 34.5 30.375C34.4987 31.4686 34.0637 32.5171 33.2904 33.2904C32.5171 34.0637 31.4686 34.4987 30.375 34.5Z" fill="#219653"/>
<path d="M32.542 28.803L29.6252 31.7198L28.2996 30.3938C28.2289 30.3255 28.1341 30.2877 28.0358 30.2885C27.9375 30.2894 27.8434 30.3288 27.7739 30.3983C27.7044 30.4679 27.6649 30.5619 27.6641 30.6602C27.6632 30.7586 27.701 30.8533 27.7693 30.924L29.3601 32.5151C29.4304 32.5854 29.5258 32.6249 29.6252 32.6249C29.7246 32.6249 29.82 32.5854 29.8903 32.5151L33.0722 29.3333C33.1405 29.2625 33.1783 29.1678 33.1775 29.0695C33.1766 28.9712 33.1372 28.8771 33.0676 28.8076C32.9981 28.7381 32.9041 28.6986 32.8057 28.6978C32.7074 28.6969 32.6127 28.7347 32.542 28.803Z" fill="#219653"/>
</g>
<defs>
<clipPath id="clip0_1700_5507">
<rect width="24" height="24" fill="white" transform="translate(12 12)"/>
</clipPath>
</defs>
</svg>
