<svg width="48" height="48" viewBox="0 0 48 48" fill="none" xmlns="http://www.w3.org/2000/svg">
<circle cx="24" cy="24" r="24" fill="#E0A326" fill-opacity="0.1"/>
<g clip-path="url(#clip0_1700_5547)">
<path d="M35.7134 12.7581C35.3949 12.2827 34.8754 12.0034 34.3168 12.0034C34.0963 12.0034 33.8806 12.0475 33.6699 12.1357L18.4 18.4133C17.7433 18.6828 17.3365 19.315 17.3561 20.0255C17.3757 20.7361 17.8266 21.3389 18.498 21.5692L24.4129 23.5882L26.4368 29.5031C26.672 30.1941 27.2993 30.6449 28.0343 30.6449C28.7302 30.6449 29.3281 30.2431 29.5927 29.6011L35.8702 14.3312C36.0859 13.8019 36.0319 13.2285 35.7134 12.7581ZM34.7578 13.8754L28.4754 29.1454C28.3627 29.4149 28.1274 29.4443 28.0294 29.4443C27.9461 29.4443 27.6717 29.4198 27.5688 29.116L25.4518 22.9217C25.393 22.7453 25.2558 22.6081 25.0793 22.5493L18.8851 20.4323C18.5911 20.3294 18.5617 20.0647 18.5568 19.9863C18.5568 19.9079 18.5666 19.6433 18.8557 19.5208L34.1257 13.2432C34.1894 13.2187 34.2531 13.204 34.3168 13.204C34.4736 13.204 34.6255 13.2873 34.7186 13.4295C34.7823 13.5226 34.8411 13.6745 34.7578 13.8754Z" fill="#E0A326"/>
<path d="M21.0114 26.1413L12.612 34.5407C12.3767 34.7759 12.3767 35.1533 12.612 35.3885C12.7296 35.5061 12.8815 35.5649 13.0383 35.5649C13.1951 35.5649 13.347 35.5061 13.4647 35.3885L21.8592 26.989C22.0944 26.7538 22.0944 26.3765 21.8592 26.1413C21.624 25.906 21.2466 25.906 21.0114 26.1413Z" fill="#E0A326"/>
<path d="M12.1764 28.0233C11.9412 28.2585 11.9412 28.6359 12.1764 28.8711C12.294 28.9887 12.4459 29.0475 12.6028 29.0475C12.7596 29.0475 12.9115 28.9887 13.0291 28.8711L16.0674 25.8328C16.3026 25.5976 16.3026 25.2202 16.0674 24.985C15.8322 24.7498 15.4549 24.7498 15.2196 24.985L12.1764 28.0233Z" fill="#E0A326"/>
<path d="M19.1309 35.8198C19.2485 35.9374 19.4004 35.9963 19.5572 35.9963C19.714 35.9963 19.866 35.9374 19.9836 35.8198L23.0219 32.7815C23.2571 32.5463 23.2571 32.169 23.0219 31.9337C22.7867 31.6985 22.4093 31.6985 22.1741 31.9337L19.1358 34.9721C18.8957 35.2073 18.8957 35.5895 19.1309 35.8198Z" fill="#E0A326"/>
</g>
<defs>
<clipPath id="clip0_1700_5547">
<rect width="24" height="24" fill="white" transform="translate(12 12)"/>
</clipPath>
</defs>
</svg>
